<svg width="40" height="40" viewBox="0 0 40 40" fill="none" xmlns="http://www.w3.org/2000/svg">
<path d="M20 40C31.0457 40 40 31.0457 40 20C40 8.9543 31.0457 0 20 0C8.9543 0 0 8.9543 0 20C0 31.0457 8.9543 40 20 40Z" fill="#FF3A62"/>
<path fill-rule="evenodd" clip-rule="evenodd" d="M22.5187 22.8962H20.9211L22.9781 25.328H21.8093L18.7521 21.9313H19.5434H21.5978C24.1823 21.9313 26.2762 19.9072 26.2762 17.4258C26.2762 16.3573 25.8868 15.366 25.2376 14.5951C24.4551 13.4312 25.3587 12.5779 26.1608 12.5779C25.9575 11.6691 24.8464 11.601 24.8464 11.601C24.7226 11.2431 24.4081 10.7143 23.7979 10.7143H22.2018C22.1808 10.7143 22.1603 10.7174 22.1401 10.7205L22.1401 10.7205C22.1231 10.723 22.1064 10.7256 22.0898 10.7262C21.3049 10.8101 20.544 11.383 21.3042 12.5115L21.3045 12.5119C21.3238 12.5387 22.3915 14.0205 22.3915 15.5439C22.3915 18.1417 20.1994 20.4236 17.4935 20.4236H12.5112H11.5504H6.42859C6.42859 21.2679 7.09323 21.9313 7.91325 21.9313H11.1454H17.2097L20.077 25.328H11.1454V27.8378H29.8085V25.328H24.7115L22.5187 22.8962ZM20.2966 18.4761C21.0808 17.6869 21.5306 16.6206 21.5306 15.5545C21.5306 14.2689 20.5826 12.9372 20.5729 12.924L20.5671 12.9142L20.5606 12.9036C20.3496 12.5923 20.2302 12.3177 20.1733 12.0661L13.0357 19.7266H17.3616C18.4572 19.7266 19.4996 19.2781 20.2966 18.4761ZM7.84441 27.8378H10.2041V25.3032H7.84441V27.8378ZM30.8235 27.8571V25.3231L32.8572 26.5354L30.8235 27.8571ZM23.0937 12.3816C23.3272 12.3816 23.5162 12.2001 23.5162 11.9761C23.5162 11.752 23.3272 11.5705 23.0937 11.5705C22.8603 11.5705 22.6711 11.752 22.6711 11.9761C22.6711 12.2001 22.8603 12.3816 23.0937 12.3816Z" fill="white"/>
</svg>
